<svg width="31" height="30" viewBox="0 0 31 30" fill="none" xmlns="http://www.w3.org/2000/svg">
<ellipse cx="15.0519" cy="15" rx="15.0519" ry="15" fill="#15A9CB"/>
<path d="M12.5277 15.547C12.623 15.547 12.6963 15.591 12.7477 15.679C12.8063 15.767 12.8357 15.888 12.8357 16.042C12.8357 16.328 12.766 16.5553 12.6267 16.724C12.216 17.2153 11.8163 17.56 11.4277 17.758C11.0463 17.956 10.5843 18.055 10.0417 18.055C9.66034 18.055 9.30834 18.0073 8.98567 17.912C8.66301 17.8167 8.27067 17.6737 7.80867 17.483C7.39067 17.2997 6.98734 17.1493 6.59867 17.032C6.22467 17.714 5.66367 18.055 4.91567 18.055C4.50501 18.055 4.17867 17.9633 3.93667 17.78C3.68734 17.5893 3.56267 17.3473 3.56267 17.054C3.56267 16.6947 3.73501 16.3977 4.07967 16.163C4.42434 15.921 4.88267 15.8 5.45467 15.8H5.59767L5.79567 12.599C5.83967 11.8657 5.97167 11.2607 6.19167 10.784C6.41167 10.3073 6.71601 9.90033 7.10467 9.563C7.44201 9.26967 7.82701 9.04967 8.25967 8.903C8.69234 8.749 9.15067 8.672 9.63467 8.672C10.4267 8.672 11.0353 8.87733 11.4607 9.288C11.886 9.69867 12.0987 10.234 12.0987 10.894C12.0987 11.3413 12.018 11.7043 11.8567 11.983C11.6953 12.2543 11.4717 12.39 11.1857 12.39C10.9803 12.39 10.819 12.3423 10.7017 12.247C10.5843 12.1443 10.5257 12.0013 10.5257 11.818C10.5257 11.752 10.5403 11.631 10.5697 11.455C10.6137 11.2497 10.6357 11.0663 10.6357 10.905C10.6357 10.597 10.544 10.355 10.3607 10.179C10.1847 9.99567 9.91334 9.904 9.54667 9.904C8.90134 9.904 8.40267 10.1167 8.05067 10.542C7.69867 10.96 7.47501 11.62 7.37967 12.522L7.12667 15.019C7.09001 15.371 7.04234 15.6753 6.98367 15.932C7.45301 16.0127 8.03967 16.141 8.74367 16.317C9.15434 16.4197 9.46967 16.493 9.68967 16.537C9.90967 16.581 10.104 16.603 10.2727 16.603C10.698 16.603 11.061 16.5333 11.3617 16.394C11.6697 16.2473 11.9593 16.0163 12.2307 15.701C12.3187 15.5983 12.4177 15.547 12.5277 15.547ZM18.4339 14.623C18.5292 14.623 18.6026 14.6707 18.6539 14.766C18.7052 14.8613 18.7309 14.9823 18.7309 15.129C18.7309 15.481 18.6246 15.69 18.4119 15.756C17.9719 15.91 17.4879 15.998 16.9599 16.02C16.8206 16.636 16.5456 17.131 16.1349 17.505C15.7242 17.8717 15.2586 18.055 14.7379 18.055C14.2979 18.055 13.9202 17.9487 13.6049 17.736C13.2969 17.5233 13.0622 17.241 12.9009 16.889C12.7396 16.537 12.6589 16.1557 12.6589 15.745C12.6589 15.1877 12.7652 14.6927 12.9779 14.26C13.1906 13.82 13.4839 13.479 13.8579 13.237C14.2319 12.9877 14.6462 12.863 15.1009 12.863C15.6582 12.863 16.1056 13.0573 16.4429 13.446C16.7876 13.8273 16.9892 14.3003 17.0479 14.865C17.3926 14.843 17.8032 14.7697 18.2799 14.645C18.3386 14.6303 18.3899 14.623 18.4339 14.623ZM14.8259 16.889C15.0606 16.889 15.2622 16.7937 15.4309 16.603C15.6069 16.4123 15.7242 16.1373 15.7829 15.778C15.5556 15.624 15.3796 15.4223 15.2549 15.173C15.1376 14.9237 15.0789 14.6597 15.0789 14.381C15.0789 14.2637 15.0899 14.1463 15.1119 14.029H15.0569C14.7636 14.029 14.5179 14.172 14.3199 14.458C14.1292 14.7367 14.0339 15.1327 14.0339 15.646C14.0339 16.0493 14.1109 16.3573 14.2649 16.57C14.4262 16.7827 14.6132 16.889 14.8259 16.889ZM23.4188 15.569C23.5141 15.569 23.5875 15.6167 23.6388 15.712C23.6975 15.8 23.7268 15.9137 23.7268 16.053C23.7268 16.2217 23.7011 16.3537 23.6498 16.449C23.5985 16.5443 23.5178 16.6287 23.4078 16.702C22.7771 17.1273 22.3151 17.4427 22.0218 17.648L21.3178 18.121C21.0391 19.639 20.6725 20.8307 20.2178 21.696C19.7705 22.5687 19.1985 23.005 18.5018 23.005C18.1278 23.005 17.8235 22.8877 17.5888 22.653C17.3541 22.4257 17.2368 22.125 17.2368 21.751C17.2368 21.2303 17.4421 20.6693 17.8528 20.068C18.2635 19.474 19.0335 18.7407 20.1628 17.868L20.2288 17.439C20.1041 17.637 19.9391 17.791 19.7338 17.901C19.5358 18.0037 19.3378 18.055 19.1398 18.055C18.6851 18.055 18.3221 17.89 18.0508 17.56C17.7795 17.23 17.6438 16.7973 17.6438 16.262C17.6438 15.6753 17.7795 15.1217 18.0508 14.601C18.3221 14.073 18.6815 13.6513 19.1288 13.336C19.5835 13.0133 20.0638 12.852 20.5698 12.852C20.7311 12.852 20.8375 12.885 20.8888 12.951C20.9475 13.0097 20.9951 13.1197 21.0318 13.281C21.1711 13.2517 21.3325 13.237 21.5158 13.237C21.6991 13.237 21.8275 13.2663 21.9008 13.325C21.9815 13.3763 22.0218 13.4827 22.0218 13.644C22.0218 13.732 22.0181 13.8017 22.0108 13.853C21.9815 14.0803 21.8898 14.656 21.7358 15.58C21.7065 15.756 21.6735 15.9503 21.6368 16.163C21.6075 16.3683 21.5745 16.5883 21.5378 16.823C22.1025 16.383 22.6451 15.9943 23.1658 15.657C23.2611 15.5983 23.3455 15.569 23.4188 15.569ZM19.5358 16.944C19.7045 16.944 19.8658 16.8413 20.0198 16.636C20.1738 16.4307 20.2838 16.1373 20.3498 15.756L20.7018 13.875C20.4011 13.8823 20.1225 13.9997 19.8658 14.227C19.6091 14.447 19.4038 14.7403 19.2498 15.107C19.0958 15.4737 19.0188 15.8623 19.0188 16.273C19.0188 16.5003 19.0628 16.669 19.1508 16.779C19.2461 16.889 19.3745 16.944 19.5358 16.944ZM18.6228 21.938C18.8061 21.938 19.0115 21.718 19.2388 21.278C19.4735 20.838 19.6971 20.1377 19.9098 19.177C19.3451 19.661 18.9381 20.0973 18.6888 20.486C18.4395 20.8747 18.3148 21.2157 18.3148 21.509C18.3148 21.6337 18.3368 21.7363 18.3808 21.817C18.4321 21.8977 18.5128 21.938 18.6228 21.938ZM24.9095 18.055C24.4768 18.055 24.1065 17.9487 23.7985 17.736C23.4978 17.516 23.2705 17.23 23.1165 16.878C22.9625 16.526 22.8855 16.1483 22.8855 15.745C22.8855 15.1877 22.9881 14.6927 23.1935 14.26C23.4061 13.82 23.6921 13.479 24.0515 13.237C24.4108 12.9877 24.8141 12.863 25.2615 12.863C25.6941 12.863 26.0645 12.973 26.3725 13.193C26.6805 13.4057 26.9115 13.688 27.0655 14.04C27.2195 14.392 27.2965 14.7697 27.2965 15.173C27.2965 15.7303 27.1901 16.229 26.9775 16.669C26.7648 17.1017 26.4751 17.4427 26.1085 17.692C25.7491 17.934 25.3495 18.055 24.9095 18.055ZM25.0305 16.867C25.2798 16.867 25.4888 16.7313 25.6575 16.46C25.8335 16.1887 25.9215 15.7927 25.9215 15.272C25.9215 14.8687 25.8481 14.5643 25.7015 14.359C25.5548 14.1537 25.3788 14.051 25.1735 14.051C24.9095 14.051 24.6895 14.1867 24.5135 14.458C24.3448 14.722 24.2605 15.118 24.2605 15.646C24.2605 16.064 24.3338 16.372 24.4805 16.57C24.6271 16.768 24.8105 16.867 25.0305 16.867Z" fill="white"/>
</svg>
